<mxfile host="app.diagrams.net" modified="2023-12-22T06:58:40.859Z" agent="Mozilla/5.0 (Macintosh; Intel Mac OS X 10_15_7) AppleWebKit/537.36 (KHTML, like Gecko) Chrome/120.0.0.0 Safari/537.36 Edg/120.0.0.0" etag="oNdax9ytpDMsMkHO1I3Y" version="22.1.11" type="github">
  <diagram name="Page-1" id="Gr23uI03_NgFq6jHIthI">
    <mxGraphModel dx="1946" dy="1847" grid="1" gridSize="10" guides="1" tooltips="1" connect="1" arrows="1" fold="1" page="1" pageScale="1" pageWidth="850" pageHeight="1100" math="0" shadow="0">
      <root>
        <mxCell id="0" />
        <mxCell id="1" parent="0" />
        <mxCell id="Baep_c4DBH1ZLhzf-aJX-1" value="Strong Technical" style="rounded=0;whiteSpace=wrap;html=1;" parent="1" vertex="1">
          <mxGeometry x="590" y="40" width="120" height="60" as="geometry" />
        </mxCell>
        <mxCell id="Baep_c4DBH1ZLhzf-aJX-2" value="Team Success" style="rounded=0;whiteSpace=wrap;html=1;fillColor=#60a917;strokeColor=#2D7600;fontColor=#ffffff;" parent="1" vertex="1">
          <mxGeometry x="780" y="20" width="280" height="60" as="geometry" />
        </mxCell>
        <mxCell id="Baep_c4DBH1ZLhzf-aJX-6" value="What ever make team success" style="ellipse;whiteSpace=wrap;html=1;cloneable=1;flipH=1;flipV=0;fillColor=#cdeb8b;strokeColor=#36393d;aspect=fixed;gradientColor=none;" parent="1" vertex="1">
          <mxGeometry x="810" y="160" width="140" height="140" as="geometry" />
        </mxCell>
        <mxCell id="Baep_c4DBH1ZLhzf-aJX-7" value="Up to you. Code alot, still code alot. Sometime write feture for team" style="ellipse;whiteSpace=wrap;html=1;cloneable=1;flipH=1;flipV=0;fillColor=#cdeb8b;strokeColor=#36393d;aspect=fixed;gradientColor=none;" parent="1" vertex="1">
          <mxGeometry x="1930" y="160" width="140" height="140" as="geometry" />
        </mxCell>
        <mxCell id="Baep_c4DBH1ZLhzf-aJX-8" value="Pair with person, guild them" style="ellipse;whiteSpace=wrap;html=1;cloneable=1;flipH=1;flipV=0;fillColor=#cdeb8b;strokeColor=#36393d;aspect=fixed;gradientColor=none;" parent="1" vertex="1">
          <mxGeometry x="1790" y="160" width="140" height="140" as="geometry" />
        </mxCell>
        <mxCell id="Baep_c4DBH1ZLhzf-aJX-9" value="Monitor. Make them not depend on you.&lt;br&gt;You&#39;re not a bottle neck" style="ellipse;whiteSpace=wrap;html=1;cloneable=1;flipH=1;flipV=0;fillColor=#cdeb8b;strokeColor=#36393d;aspect=fixed;gradientColor=none;" parent="1" vertex="1">
          <mxGeometry x="1650" y="160" width="140" height="140" as="geometry" />
        </mxCell>
        <mxCell id="Baep_c4DBH1ZLhzf-aJX-10" value="Make people better even than you so they can take your pos and u step up" style="ellipse;whiteSpace=wrap;html=1;cloneable=1;flipH=1;flipV=0;fillColor=#cdeb8b;strokeColor=#36393d;aspect=fixed;gradientColor=none;" parent="1" vertex="1">
          <mxGeometry x="1510" y="160" width="140" height="140" as="geometry" />
        </mxCell>
        <mxCell id="Baep_c4DBH1ZLhzf-aJX-11" value="Produce alot" style="ellipse;whiteSpace=wrap;html=1;cloneable=1;flipH=1;flipV=0;fillColor=#cdeb8b;strokeColor=#36393d;aspect=fixed;gradientColor=none;" parent="1" vertex="1">
          <mxGeometry x="950" y="160" width="140" height="140" as="geometry" />
        </mxCell>
        <mxCell id="Baep_c4DBH1ZLhzf-aJX-12" value="Don&#39;t work alone.&lt;br&gt;Can&#39;t be a leader if no following" style="ellipse;whiteSpace=wrap;html=1;cloneable=1;flipH=1;flipV=0;fillColor=#cdeb8b;strokeColor=#36393d;aspect=fixed;gradientColor=none;" parent="1" vertex="1">
          <mxGeometry x="1370" y="160" width="140" height="140" as="geometry" />
        </mxCell>
        <mxCell id="Baep_c4DBH1ZLhzf-aJX-13" value="Make top decisions .&lt;br&gt;Take a risk" style="ellipse;whiteSpace=wrap;html=1;cloneable=1;flipH=1;flipV=0;fillColor=#cdeb8b;strokeColor=#36393d;aspect=fixed;gradientColor=none;" parent="1" vertex="1">
          <mxGeometry x="1090" y="160" width="140" height="140" as="geometry" />
        </mxCell>
        <mxCell id="Baep_c4DBH1ZLhzf-aJX-14" value="When things goes bad, take a plan and help team success.&lt;br&gt;How can we avoid this next time" style="ellipse;whiteSpace=wrap;html=1;cloneable=1;flipH=1;flipV=0;fillColor=#cdeb8b;strokeColor=#36393d;aspect=fixed;gradientColor=none;" parent="1" vertex="1">
          <mxGeometry x="1230" y="160" width="140" height="140" as="geometry" />
        </mxCell>
        <mxCell id="Baep_c4DBH1ZLhzf-aJX-15" value="Hire, Interview, Review, Feedback, Trainning." style="ellipse;whiteSpace=wrap;html=1;cloneable=1;flipH=1;flipV=0;fillColor=#cdeb8b;strokeColor=#36393d;aspect=fixed;gradientColor=none;" parent="1" vertex="1">
          <mxGeometry x="670" y="160" width="140" height="140" as="geometry" />
        </mxCell>
        <mxCell id="Baep_c4DBH1ZLhzf-aJX-16" value="Planning. Thing team actions, your actions, communication&amp;nbsp;" style="ellipse;whiteSpace=wrap;html=1;cloneable=1;flipH=1;flipV=0;fillColor=#cdeb8b;strokeColor=#36393d;aspect=fixed;gradientColor=none;" parent="1" vertex="1">
          <mxGeometry x="810" y="300" width="140" height="140" as="geometry" />
        </mxCell>
        <mxCell id="Baep_c4DBH1ZLhzf-aJX-17" value="Financial just a reward of previous factors" style="ellipse;whiteSpace=wrap;html=1;cloneable=1;flipH=1;flipV=0;fillColor=#cdeb8b;strokeColor=#36393d;aspect=fixed;gradientColor=none;" parent="1" vertex="1">
          <mxGeometry x="1930" y="300" width="140" height="140" as="geometry" />
        </mxCell>
        <mxCell id="Baep_c4DBH1ZLhzf-aJX-18" value="Help people maximize their strong and minimal they weakened.&lt;br&gt;" style="ellipse;whiteSpace=wrap;html=1;cloneable=1;flipH=1;flipV=0;fillColor=#cdeb8b;strokeColor=#36393d;aspect=fixed;gradientColor=none;" parent="1" vertex="1">
          <mxGeometry x="1790" y="300" width="140" height="140" as="geometry" />
        </mxCell>
        <mxCell id="Baep_c4DBH1ZLhzf-aJX-19" value="Empathy. Make sure we&#39;re alignment, understanding, how people feel and make the right actions" style="ellipse;whiteSpace=wrap;html=1;cloneable=1;flipH=1;flipV=0;fillColor=#cdeb8b;strokeColor=#36393d;aspect=fixed;gradientColor=none;" parent="1" vertex="1">
          <mxGeometry x="1650" y="300" width="140" height="140" as="geometry" />
        </mxCell>
        <mxCell id="Baep_c4DBH1ZLhzf-aJX-20" value="Process (Review, Securities)" style="ellipse;whiteSpace=wrap;html=1;cloneable=1;flipH=1;flipV=0;fillColor=#cdeb8b;strokeColor=#36393d;aspect=fixed;gradientColor=none;" parent="1" vertex="1">
          <mxGeometry x="1510" y="300" width="140" height="140" as="geometry" />
        </mxCell>
        <mxCell id="Baep_c4DBH1ZLhzf-aJX-21" value="Proactive, set high standards for the team, If they not meet, should do trainning for them" style="ellipse;whiteSpace=wrap;html=1;cloneable=1;flipH=1;flipV=0;fillColor=#cdeb8b;strokeColor=#36393d;aspect=fixed;gradientColor=none;" parent="1" vertex="1">
          <mxGeometry x="950" y="300" width="140" height="140" as="geometry" />
        </mxCell>
        <mxCell id="Baep_c4DBH1ZLhzf-aJX-22" value="Build the team with high standard&amp;nbsp;" style="ellipse;whiteSpace=wrap;html=1;cloneable=1;flipH=1;flipV=0;fillColor=#cdeb8b;strokeColor=#36393d;aspect=fixed;gradientColor=none;" parent="1" vertex="1">
          <mxGeometry x="1370" y="300" width="140" height="140" as="geometry" />
        </mxCell>
        <mxCell id="Baep_c4DBH1ZLhzf-aJX-23" value="Thing about the sort tearm and long term games" style="ellipse;whiteSpace=wrap;html=1;cloneable=1;flipH=1;flipV=0;fillColor=#cdeb8b;strokeColor=#36393d;aspect=fixed;gradientColor=none;" parent="1" vertex="1">
          <mxGeometry x="1090" y="300" width="140" height="140" as="geometry" />
        </mxCell>
        <mxCell id="Baep_c4DBH1ZLhzf-aJX-24" value="Grow mindset." style="ellipse;whiteSpace=wrap;html=1;cloneable=1;flipH=1;flipV=0;fillColor=#cdeb8b;strokeColor=#36393d;aspect=fixed;gradientColor=none;" parent="1" vertex="1">
          <mxGeometry x="1230" y="300" width="140" height="140" as="geometry" />
        </mxCell>
        <mxCell id="Baep_c4DBH1ZLhzf-aJX-25" value="Foreseen what will going, Trainning, hire iff needed." style="ellipse;whiteSpace=wrap;html=1;cloneable=1;flipH=1;flipV=0;fillColor=#cdeb8b;strokeColor=#36393d;aspect=fixed;gradientColor=none;" parent="1" vertex="1">
          <mxGeometry x="670" y="300" width="140" height="140" as="geometry" />
        </mxCell>
        <mxCell id="Baep_c4DBH1ZLhzf-aJX-26" value="&lt;h1&gt;&lt;font&gt;Warning&lt;/font&gt;&lt;/h1&gt;&lt;p&gt;&lt;font&gt;Some company just pick the best developer to lead position, leader don&#39;t have to be a best developer&lt;/font&gt;&lt;/p&gt;" style="text;html=1;strokeColor=none;fillColor=none;spacing=5;spacingTop=-20;whiteSpace=wrap;overflow=hidden;rounded=0;fontColor=#FF0000;labelBackgroundColor=#FFFF00;" parent="1" vertex="1">
          <mxGeometry x="1075" y="20" width="715" height="120" as="geometry" />
        </mxCell>
        <mxCell id="Baep_c4DBH1ZLhzf-aJX-27" value="Decisions today will impact the feature" style="ellipse;whiteSpace=wrap;html=1;cloneable=1;flipH=1;flipV=0;fillColor=#cdeb8b;strokeColor=#36393d;aspect=fixed;gradientColor=none;" parent="1" vertex="1">
          <mxGeometry x="810" y="440" width="140" height="140" as="geometry" />
        </mxCell>
        <mxCell id="Baep_c4DBH1ZLhzf-aJX-28" value="" style="ellipse;whiteSpace=wrap;html=1;cloneable=1;flipH=1;flipV=0;fillColor=#cdeb8b;strokeColor=#36393d;aspect=fixed;gradientColor=none;" parent="1" vertex="1">
          <mxGeometry x="1930" y="440" width="140" height="140" as="geometry" />
        </mxCell>
        <mxCell id="Baep_c4DBH1ZLhzf-aJX-29" value="" style="ellipse;whiteSpace=wrap;html=1;cloneable=1;flipH=1;flipV=0;fillColor=#cdeb8b;strokeColor=#36393d;aspect=fixed;gradientColor=none;" parent="1" vertex="1">
          <mxGeometry x="1790" y="440" width="140" height="140" as="geometry" />
        </mxCell>
        <mxCell id="Baep_c4DBH1ZLhzf-aJX-30" value="" style="ellipse;whiteSpace=wrap;html=1;cloneable=1;flipH=1;flipV=0;fillColor=#cdeb8b;strokeColor=#36393d;aspect=fixed;gradientColor=none;" parent="1" vertex="1">
          <mxGeometry x="1650" y="440" width="140" height="140" as="geometry" />
        </mxCell>
        <mxCell id="Baep_c4DBH1ZLhzf-aJX-31" value="&lt;b&gt;Build excellent skill first. Like Senior first.&lt;/b&gt;" style="ellipse;whiteSpace=wrap;html=1;cloneable=1;flipH=1;flipV=0;fillColor=#cdeb8b;strokeColor=#36393d;aspect=fixed;gradientColor=none;" parent="1" vertex="1">
          <mxGeometry x="1510" y="440" width="140" height="140" as="geometry" />
        </mxCell>
        <mxCell id="Baep_c4DBH1ZLhzf-aJX-32" value="&lt;b&gt;Don&#39;t need a title&lt;br&gt;Need followers with good attitudes to help team success&amp;nbsp;&lt;/b&gt;" style="ellipse;whiteSpace=wrap;html=1;cloneable=1;flipH=1;flipV=0;fillColor=#cdeb8b;strokeColor=#36393d;aspect=fixed;gradientColor=none;" parent="1" vertex="1">
          <mxGeometry x="950" y="440" width="140" height="140" as="geometry" />
        </mxCell>
        <mxCell id="Baep_c4DBH1ZLhzf-aJX-33" value="Team lead also need excellent technical skills, otherwise Manager" style="ellipse;whiteSpace=wrap;html=1;cloneable=1;flipH=1;flipV=0;fillColor=#cdeb8b;strokeColor=#36393d;aspect=fixed;gradientColor=none;" parent="1" vertex="1">
          <mxGeometry x="1370" y="440" width="140" height="140" as="geometry" />
        </mxCell>
        <mxCell id="Baep_c4DBH1ZLhzf-aJX-34" value="Need people surround good than you so you can learn from them. Black belt make better black belt than them." style="ellipse;whiteSpace=wrap;html=1;cloneable=1;flipH=1;flipV=0;fillColor=#cdeb8b;strokeColor=#36393d;aspect=fixed;gradientColor=none;" parent="1" vertex="1">
          <mxGeometry x="1090" y="440" width="140" height="140" as="geometry" />
        </mxCell>
        <mxCell id="Baep_c4DBH1ZLhzf-aJX-35" value="You don&#39;t need the best developer in the team" style="ellipse;whiteSpace=wrap;html=1;cloneable=1;flipH=1;flipV=0;fillColor=#cdeb8b;strokeColor=#36393d;aspect=fixed;gradientColor=none;" parent="1" vertex="1">
          <mxGeometry x="1230" y="440" width="140" height="140" as="geometry" />
        </mxCell>
        <mxCell id="Baep_c4DBH1ZLhzf-aJX-36" value="Have a strong foundation&lt;br&gt;or no team to lead.&lt;br&gt;" style="ellipse;whiteSpace=wrap;html=1;cloneable=1;flipH=1;flipV=0;fillColor=#cdeb8b;strokeColor=#36393d;aspect=fixed;gradientColor=none;" parent="1" vertex="1">
          <mxGeometry x="670" y="440" width="140" height="140" as="geometry" />
        </mxCell>
        <mxCell id="pOf8j6xhu3q0MM95geEe-3" style="edgeStyle=orthogonalEdgeStyle;rounded=0;orthogonalLoop=1;jettySize=auto;html=1;" edge="1" parent="1" source="pOf8j6xhu3q0MM95geEe-1" target="pOf8j6xhu3q0MM95geEe-2">
          <mxGeometry relative="1" as="geometry" />
        </mxCell>
        <mxCell id="pOf8j6xhu3q0MM95geEe-1" value="Planning for Promotion" style="rounded=0;whiteSpace=wrap;html=1;" vertex="1" parent="1">
          <mxGeometry x="130" y="130" width="120" height="60" as="geometry" />
        </mxCell>
        <mxCell id="pOf8j6xhu3q0MM95geEe-6" style="edgeStyle=orthogonalEdgeStyle;rounded=0;orthogonalLoop=1;jettySize=auto;html=1;exitX=1;exitY=0.5;exitDx=0;exitDy=0;entryX=0;entryY=0.5;entryDx=0;entryDy=0;" edge="1" parent="1" source="pOf8j6xhu3q0MM95geEe-2" target="pOf8j6xhu3q0MM95geEe-4">
          <mxGeometry relative="1" as="geometry" />
        </mxCell>
        <mxCell id="pOf8j6xhu3q0MM95geEe-7" style="edgeStyle=orthogonalEdgeStyle;rounded=0;orthogonalLoop=1;jettySize=auto;html=1;exitX=1;exitY=0.5;exitDx=0;exitDy=0;entryX=0;entryY=0.5;entryDx=0;entryDy=0;" edge="1" parent="1" source="pOf8j6xhu3q0MM95geEe-2" target="pOf8j6xhu3q0MM95geEe-5">
          <mxGeometry relative="1" as="geometry" />
        </mxCell>
        <mxCell id="pOf8j6xhu3q0MM95geEe-9" style="edgeStyle=orthogonalEdgeStyle;rounded=0;orthogonalLoop=1;jettySize=auto;html=1;exitX=1;exitY=0.5;exitDx=0;exitDy=0;entryX=0;entryY=0.5;entryDx=0;entryDy=0;" edge="1" parent="1" source="pOf8j6xhu3q0MM95geEe-2" target="pOf8j6xhu3q0MM95geEe-8">
          <mxGeometry relative="1" as="geometry" />
        </mxCell>
        <mxCell id="pOf8j6xhu3q0MM95geEe-11" style="edgeStyle=orthogonalEdgeStyle;rounded=0;orthogonalLoop=1;jettySize=auto;html=1;exitX=0;exitY=0.5;exitDx=0;exitDy=0;entryX=1;entryY=0.5;entryDx=0;entryDy=0;" edge="1" parent="1" target="pOf8j6xhu3q0MM95geEe-10">
          <mxGeometry relative="1" as="geometry">
            <mxPoint x="130" y="275" as="sourcePoint" />
          </mxGeometry>
        </mxCell>
        <mxCell id="pOf8j6xhu3q0MM95geEe-13" style="edgeStyle=orthogonalEdgeStyle;rounded=0;orthogonalLoop=1;jettySize=auto;html=1;exitX=0;exitY=0.5;exitDx=0;exitDy=0;entryX=1;entryY=0.5;entryDx=0;entryDy=0;" edge="1" parent="1" target="pOf8j6xhu3q0MM95geEe-12">
          <mxGeometry relative="1" as="geometry">
            <mxPoint x="130" y="275" as="sourcePoint" />
          </mxGeometry>
        </mxCell>
        <mxCell id="pOf8j6xhu3q0MM95geEe-15" style="edgeStyle=orthogonalEdgeStyle;rounded=0;orthogonalLoop=1;jettySize=auto;html=1;exitX=0;exitY=0.5;exitDx=0;exitDy=0;entryX=1;entryY=0.5;entryDx=0;entryDy=0;" edge="1" parent="1" target="pOf8j6xhu3q0MM95geEe-14">
          <mxGeometry relative="1" as="geometry">
            <mxPoint x="130" y="275" as="sourcePoint" />
          </mxGeometry>
        </mxCell>
        <mxCell id="pOf8j6xhu3q0MM95geEe-17" style="edgeStyle=orthogonalEdgeStyle;rounded=0;orthogonalLoop=1;jettySize=auto;html=1;exitX=0;exitY=0.5;exitDx=0;exitDy=0;entryX=1;entryY=0.5;entryDx=0;entryDy=0;" edge="1" parent="1" target="pOf8j6xhu3q0MM95geEe-16">
          <mxGeometry relative="1" as="geometry">
            <mxPoint x="130" y="275" as="sourcePoint" />
          </mxGeometry>
        </mxCell>
        <mxCell id="pOf8j6xhu3q0MM95geEe-19" style="edgeStyle=orthogonalEdgeStyle;rounded=0;orthogonalLoop=1;jettySize=auto;html=1;exitX=0;exitY=0.5;exitDx=0;exitDy=0;entryX=1;entryY=0.5;entryDx=0;entryDy=0;" edge="1" parent="1" target="pOf8j6xhu3q0MM95geEe-18">
          <mxGeometry relative="1" as="geometry">
            <mxPoint x="130" y="275" as="sourcePoint" />
          </mxGeometry>
        </mxCell>
        <mxCell id="pOf8j6xhu3q0MM95geEe-2" value="Avoid Lack of Tracking Data" style="rounded=0;whiteSpace=wrap;html=1;" vertex="1" parent="1">
          <mxGeometry x="130" y="240" width="120" height="60" as="geometry" />
        </mxCell>
        <mxCell id="pOf8j6xhu3q0MM95geEe-4" value="Where you stand right now" style="rounded=0;whiteSpace=wrap;html=1;" vertex="1" parent="1">
          <mxGeometry x="360" y="130" width="120" height="60" as="geometry" />
        </mxCell>
        <mxCell id="pOf8j6xhu3q0MM95geEe-5" value="Know who you are" style="rounded=0;whiteSpace=wrap;html=1;" vertex="1" parent="1">
          <mxGeometry x="360" y="210" width="120" height="60" as="geometry" />
        </mxCell>
        <mxCell id="pOf8j6xhu3q0MM95geEe-8" value="What is your current positions ?" style="rounded=0;whiteSpace=wrap;html=1;" vertex="1" parent="1">
          <mxGeometry x="360" y="290" width="120" height="60" as="geometry" />
        </mxCell>
        <mxCell id="pOf8j6xhu3q0MM95geEe-10" value="What your productivities" style="rounded=0;whiteSpace=wrap;html=1;" vertex="1" parent="1">
          <mxGeometry x="-90" y="80" width="120" height="60" as="geometry" />
        </mxCell>
        <mxCell id="pOf8j6xhu3q0MM95geEe-12" value="What is market for x2 x3&amp;nbsp;" style="rounded=0;whiteSpace=wrap;html=1;" vertex="1" parent="1">
          <mxGeometry x="-90" y="160" width="120" height="60" as="geometry" />
        </mxCell>
        <mxCell id="pOf8j6xhu3q0MM95geEe-14" value="What is you progress this month, n month" style="rounded=0;whiteSpace=wrap;html=1;" vertex="1" parent="1">
          <mxGeometry x="-90" y="240" width="120" height="60" as="geometry" />
        </mxCell>
        <mxCell id="pOf8j6xhu3q0MM95geEe-16" value="Tranning" style="rounded=0;whiteSpace=wrap;html=1;" vertex="1" parent="1">
          <mxGeometry x="-90" y="325" width="120" height="60" as="geometry" />
        </mxCell>
        <mxCell id="pOf8j6xhu3q0MM95geEe-18" value="Target for income. Such as 1.5 ti" style="rounded=0;whiteSpace=wrap;html=1;" vertex="1" parent="1">
          <mxGeometry x="-90" y="405" width="120" height="60" as="geometry" />
        </mxCell>
        <mxCell id="pOf8j6xhu3q0MM95geEe-20" value="&lt;h1&gt;&lt;span style=&quot;background-color: initial;&quot;&gt;Who are you&lt;/span&gt;&lt;/h1&gt;&lt;h1&gt;&lt;span style=&quot;background-color: initial; font-size: 12px; font-weight: normal;&quot;&gt;10 years&lt;/span&gt;&lt;br&gt;&lt;/h1&gt;&lt;p&gt;What should be my current role?&lt;br&gt;- Principal&lt;br&gt;How many skill have you learn in 2023?&lt;br&gt;&lt;br&gt;How many skills have you master in 2023?&lt;br&gt;&lt;br&gt;How many books have you read?&lt;br&gt;2&lt;br&gt;&lt;br&gt;How many course have you taken?&lt;br&gt;&lt;br&gt;&lt;/p&gt;&lt;p&gt;How would you get Swift knowledge?&lt;br&gt;&lt;br&gt;How you raise Swift knowledge from 0-&amp;gt;10?&lt;br&gt;(synch await - run loop)&lt;br&gt;&lt;br&gt;How you automatic your Testing?&lt;br&gt;&lt;br&gt;What is you software architecture skills?&lt;br&gt;&lt;br&gt;What is you Git skill?&lt;/p&gt;&lt;p&gt;&lt;br&gt;&lt;/p&gt;&lt;p&gt;What is you reputation 1-&amp;gt;10&lt;br&gt;&lt;br&gt;Do you have Blog? &lt;br&gt;Are you knowing in industry?&lt;br&gt;Build you Github pages?&lt;/p&gt;&lt;p&gt;&lt;br&gt;&lt;/p&gt;&lt;p&gt;&lt;b&gt;&lt;font style=&quot;font-size: 24px;&quot;&gt;Not doing research&lt;/font&gt;&lt;/b&gt;&lt;/p&gt;&lt;p&gt;&lt;font style=&quot;font-size: 12px;&quot;&gt;Open opportunities, research for opportunities, looking for better job, increase salary, have a plan for the next 6 months, how to archive a plan&lt;br&gt;If you just expose to average salary environment&amp;nbsp; you will get average (LinkIn)&lt;br&gt;What skills do I need to get x2&lt;/font&gt;&lt;/p&gt;&lt;p&gt;&lt;font style=&quot;font-size: 12px;&quot;&gt;What is average salary in your area? &amp;lt;- Do a research&lt;br&gt;What is highest salary for iOS position in your area? How to get there?&lt;br&gt;&lt;br&gt;What is desc your currently salary? Average, below average?&lt;br&gt;What top iOS developers make? 5000 a month?&lt;/font&gt;&lt;/p&gt;&lt;p&gt;How much you can make out of where do you live? (Sin, Malay)? Could you work for company abroad?&lt;br&gt;What programming skills do you need to master to get there? (Swift Functional...)&lt;/p&gt;&lt;p&gt;What non programming skill? (leadership, english, writing, public speaking, marketing to promo your self)&lt;br&gt;&lt;br&gt;&lt;/p&gt;&lt;p&gt;&lt;b&gt;&lt;font style=&quot;font-size: 24px;&quot;&gt;Not investing in your education&lt;/font&gt;&lt;/b&gt;&lt;/p&gt;&lt;p&gt;&lt;font style=&quot;font-size: 12px;&quot;&gt;You have not much time to learn, practice at work. At work pretty random, you may have no space to practice.&lt;/font&gt;&lt;/p&gt;&lt;p&gt;&lt;font style=&quot;font-size: 12px;&quot;&gt;Take time to read book, invest in your self&lt;/font&gt;&lt;/p&gt;&lt;p&gt;&lt;font style=&quot;font-size: 12px;&quot;&gt;Don&#39;t become a teacher, find some where you can learn from people.&lt;br&gt;&lt;br&gt;&lt;/font&gt;&lt;/p&gt;&lt;p&gt;&lt;b&gt;&lt;font style=&quot;font-size: 24px;&quot;&gt;No rainy day&#39;s fund&lt;/font&gt;&lt;/b&gt;&lt;br&gt;Money to no worry about anything, don&#39;t have to rust to get a job and lose other opportunities&amp;nbsp;&lt;/p&gt;&lt;p&gt;How much do you have for emergencies ? &lt;br&gt;6 months (Stable job) 300tr&lt;/p&gt;&lt;p&gt;Save at lest 20% monthly income&lt;/p&gt;&lt;p&gt;How to increase your income&lt;/p&gt;&lt;p&gt;How much you make in 2023&lt;/p&gt;&lt;p&gt;How much you spend?&lt;/p&gt;&lt;p&gt;How much you save?&lt;/p&gt;&lt;p&gt;&lt;br&gt;&lt;/p&gt;&lt;p&gt;&lt;b&gt;&lt;font style=&quot;font-size: 24px;&quot;&gt;Setting a Unrealistic plan&lt;/font&gt;&lt;/b&gt;&lt;/p&gt;&lt;p&gt;~10 bils next year&lt;/p&gt;&lt;p&gt;- Create other source of income&lt;/p&gt;&lt;p&gt;Lack of balance in life&lt;/p&gt;&lt;p&gt;How are you life, family, health, friends?&lt;/p&gt;&lt;p&gt;Your career&amp;nbsp; should fits well with&amp;nbsp; your life 0-&amp;gt;10 (5)&lt;/p&gt;&lt;p&gt;Health(3)&lt;br&gt;Family(5)&lt;/p&gt;&lt;p&gt;&lt;b&gt;&lt;font style=&quot;font-size: 24px;&quot;&gt;Be active in the work Environment&amp;nbsp;&lt;/font&gt;&lt;/b&gt;&lt;/p&gt;&lt;p&gt;&lt;font style=&quot;font-size: 12px;&quot;&gt;Inspired ?&lt;/font&gt;&lt;/p&gt;&lt;p&gt;&lt;font style=&quot;font-size: 12px;&quot;&gt;Build your own team, create a new team&lt;/font&gt;&lt;/p&gt;&lt;p&gt;&lt;font style=&quot;font-size: 12px;&quot;&gt;Proactive with your programming skills, what you have to learn, find a better opportunities&amp;nbsp;&lt;/font&gt;&lt;/p&gt;&lt;p&gt;&lt;font style=&quot;font-size: 12px;&quot;&gt;&lt;br&gt;&lt;/font&gt;&lt;/p&gt;" style="text;html=1;strokeColor=none;fillColor=none;spacing=5;spacingTop=-20;whiteSpace=wrap;overflow=hidden;rounded=0;" vertex="1" parent="1">
          <mxGeometry x="-810" width="710" height="2190" as="geometry" />
        </mxCell>
      </root>
    </mxGraphModel>
  </diagram>
</mxfile>
